# xmcd
#
# Track frame offsets:
#  150
#  10853
#  23823
#  34643
#  46713
#  58643
#  66765
#  78185
#  91715
#  104785
#  115485
#  128733
#  139890
#  152593
#  165298
#  177245
#  191043
#  203270
#  216995
#  225390
#  236383
#  251208
#  261548
#  273095
#
# Disc length: 3771 seconds
#
# Revision: 0
# Processed by: cddbd v1.5.1PL2 Copyright (c) Steve Scherf et al.
# Submitted via: Collectorz.com_Music_Collector 6.11
#
DISCID=3d0eb918
DTITLE=Miller Sisters - The Miller Sisters - Sun's Singing Sweethearts - Sun Country Vol. 3 
DYEAR=1996
DGENRE=Country
TTITLE0=Someday You Will Pay
TTITLE1=You Didn't Think I Would
TTITLE2=There's No Right Way To Do Me Wrong
TTITLE3=You Can Tell Me
TTITLE4=It Only Hurts For A Little While
TTITLE5=Woody
TTITLE6=Look What You've Done To My Heart
TTITLE7=Got You On My Mind
TTITLE8=I Know I Can't Forget You But I'll Try
TTITLE9=Ten Cats Down
TTITLE10=Finders Keepers
TTITLE11=Chains Of Love
TTITLE12=My Isle Of Golden Dreams
TTITLE13=Glenn Honeycutt with The Miller Sisters - Ill Be Around
TTITLE14=Glenn Honeycutt with The Miller Sisters - I'll Wait Forever
TTITLE15=Cast King and The Miller Sisters - Can't Find Time To Pray
TTITLE16=Ten Cats Down (Alt)
TTITLE17=Finders Keepers (Alt)
TTITLE18=Woody (Alt)
TTITLE19=Got You On My Mind (Alt)
TTITLE20=I Know I Can't Forget You (Alt)
TTITLE21=Chains Of Love (Alt)
TTITLE22=Look What You've Done To My Heart (Alt)
TTITLE23=The Miller Trio - Don't Let Me Down
EXTD=
EXTT0=
EXTT1=
EXTT2=
EXTT3=
EXTT4=
EXTT5=
EXTT6=
EXTT7=
EXTT8=
EXTT9=
EXTT10=
EXTT11=
EXTT12=
EXTT13=
EXTT14=
EXTT15=
EXTT16=
EXTT17=
EXTT18=
EXTT19=
EXTT20=
EXTT21=
EXTT22=
EXTT23=
PLAYORDER=
